{
  "accessors": [
    {
      "bufferView": 2,
      "componentType": 5126,
      "count": 1644,
      "max": [
        61.95500183105469,
        26.927200317382813,
        -5.558300018310547
      ],
      "min": [
        8.161700248718262,
        -27.008499145507813,
        -190.82749938964844
      ],
      "type": "VEC3"
    },
    {
      "bufferView": 2,
      "byteOffset": 19728,
      "componentType": 5126,
      "count": 1644,
      "max": [
        0.9972531795501709,
        0.9999030828475952,
        0.9994314908981323
      ],
      "min": [
        -0.9972531199455261,
        -0.9999030232429504,
        -1.0
      ],
      "type": "VEC3"
    },
    {
      "bufferView": 1,
      "componentType": 5126,
      "count": 1644,
      "max": [
        46.90510177612305,
        72.00980377197266
      ],
      "min": [
        -7.032400131225586,
        -113.2593994140625
      ],
      "type": "VEC2"
    },
    {
      "bufferView": 0,
      "componentType": 5125,
      "count": 8550,
      "type": "SCALAR"
    },
    {
      "bufferView": 2,
      "byteOffset": 39456,
      "componentType": 5126,
      "count": 14466,
      "max": [
        65.25350189208984,
        30.115100860595703,
        -0.028699999675154686
      ],
      "min": [
        4.85890007019043,
        -30.287500381469727,
        -224.56480407714844
      ],
      "type": "VEC3"
    },
    {
      "bufferView": 2,
      "byteOffset": 213048,
      "componentType": 5126,
      "count": 14466,
      "max": [
        0.9998949766159058,
        0.9998529553413391,
        0.9999933242797852
      ],
      "min": [
        -0.9998948574066162,
        -0.9998523592948914,
        -0.9998409748077393
      ],
      "type": "VEC3"
    },
    {
      "bufferView": 1,
      "byteOffset": 13152,
      "componentType": 5126,
      "count": 14466,
      "max": [
        0.9898539185523987,
        0.9830688238143921
      ],
      "min": [
        0.04011411964893341,
        0.049285888671875
      ],
      "type": "VEC2"
    },
    {
      "bufferView": 0,
      "byteOffset": 34200,
      "componentType": 5125,
      "count": 79560,
      "type": "SCALAR"
    },
    {
      "bufferView": 2,
      "byteOffset": 386640,
      "componentType": 5126,
      "count": 865,
      "max": [
        47.5348014831543,
        12.451399803161621,
        -221.12120056152344
      ],
      "min": [
        22.589500427246094,
        -12.493900299072266,
        -227.7617950439453
      ],
      "type": "VEC3"
    },
    {
      "bufferView": 2,
      "byteOffset": 397020,
      "componentType": 5126,
      "count": 865,
      "max": [
        0.9997501969337463,
        0.9997501373291016,
        0.33471429347991943
      ],
      "min": [
        -0.9997501969337463,
        -0.9997499585151672,
        -1.0
      ],
      "type": "VEC3"
    },
    {
      "bufferView": 1,
      "byteOffset": 128880,
      "componentType": 5126,
      "count": 865,
      "max": [
        0.9999999403953552,
        0.9979681968688965
      ],
      "min": [
        0.0,
        0.0
      ],
      "type": "VEC2"
    },
    {
      "bufferView": 0,
      "byteOffset": 352440,
      "componentType": 5125,
      "count": 4752,
      "type": "SCALAR"
    },
    {
      "bufferView": 2,
      "byteOffset": 407400,
      "componentType": 5126,
      "count": 292,
      "max": [
        60.51940155029297,
        30.130701065063477,
        -17.574199676513672
      ],
      "min": [
        10.055100440979004,
        -10.085881233215332,
        -227.82920837402344
      ],
      "type": "VEC3"
    },
    {
      "bufferView": 2,
      "byteOffset": 410904,
      "componentType": 5126,
      "count": 292,
      "max": [
        0.8224666714668274,
        0.9998529553413391,
        -0.00038824547664262354
      ],
      "min": [
        -0.8063119053840637,
        -0.09082475304603577,
        -1.0
      ],
      "type": "VEC3"
    },
    {
      "bufferView": 1,
      "byteOffset": 135800,
      "componentType": 5126,
      "count": 292,
      "max": [
        0.9876614809036255,
        0.992660403251648
      ],
      "min": [
        0.04874598979949951,
        0.008113808929920197
      ],
      "type": "VEC2"
    },
    {
      "bufferView": 0,
      "byteOffset": 371448,
      "componentType": 5125,
      "count": 1296,
      "type": "SCALAR"
    }
  ],
  "asset": {
    "extras": {
      "author": "MAX (https://sketchfab.com/rp1147140)",
      "license": "CC-BY-4.0 (http://creativecommons.org/licenses/by/4.0/)",
      "source": "https://sketchfab.com/3d-models/drink-bottle-5cb2a52afdac49cb9d83dab7da513a9f",
      "title": "DRINK BOTTLE"
    },
    "generator": "Sketchfab-15.5.0",
    "version": "2.0"
  },
  "bufferViews": [
    {
      "buffer": 0,
      "byteLength": 376632,
      "name": "floatBufferViews",
      "target": 34963
    },
    {
      "buffer": 0,
      "byteLength": 138136,
      "byteOffset": 376632,
      "byteStride": 8,
      "name": "floatBufferViews",
      "target": 34962
    },
    {
      "buffer": 0,
      "byteLength": 414408,
      "byteOffset": 514768,
      "byteStride": 12,
      "name": "floatBufferViews",
      "target": 34962
    }
  ],
  "buffers": [
    {
      "byteLength": 929176,
      "uri": "scene.bin"
    }
  ],
  "extensionsUsed": [
    "KHR_materials_specular",
    "KHR_materials_transmission",
    "KHR_materials_clearcoat",
    "KHR_materials_emissive_strength"
  ],
  "images": [
    {
      "uri": "textures/LEBAL_baseColor.png"
    }
  ],
  "materials": [
    {
      "doubleSided": true,
      "extensions": {
        "KHR_materials_specular": {
          "specularColorFactor": [
            1.0,
            1.0,
            1.0
          ],
          "specularFactor": 0.5043824895466348
        }
      },
      "name": "material_0",
      "pbrMetallicRoughness": {
        "baseColorFactor": [
          0.008935113392301703,
          0.19121515258886548,
          0.0035800817526522046,
          1.0
        ],
        "metallicFactor": 0.24838170935378087,
        "roughnessFactor": 0.4190488961490168
      }
    },
    {
      "doubleSided": true,
      "extensions": {
        "KHR_materials_specular": {
          "specularColorFactor": [
            1.0,
            1.0,
            1.0
          ],
          "specularFactor": 0.38857261279272465
        },
        "KHR_materials_transmission": {
          "transmissionFactor": 0.0
        }
      },
      "name": "Andara",
      "pbrMetallicRoughness": {
        "baseColorFactor": [
          0.026340529858199718,
          0.5054543983643133,
          0.01129255258899169,
          1.0
        ],
        "metallicFactor": 0.24228645268252244,
        "roughnessFactor": 0.3310455803293877
      }
    },
    {
      "alphaMode": "BLEND",
      "emissiveFactor": [
        0.008246842030585094,
        0.05057634433250608,
        0.002168392326190942
      ],
      "extensions": {
        "KHR_materials_clearcoat": {
          "clearcoatFactor": 1.0,
          "clearcoatRoughnessFactor": 0.18133388596993819
        },
        "KHR_materials_specular": {
          "specularColorFactor": [
            1.0,
            1.0,
            1.0
          ],
          "specularFactor": 0.9005741731784325
        },
        "KHR_materials_transmission": {
          "transmissionFactor": 1.0
        }
      },
      "name": "GLASS",
      "pbrMetallicRoughness": {
        "baseColorFactor": [
          0.0,
          0.4010489454238216,
          0.004751818409860163,
          0.25
        ],
        "metallicFactor": 0.6445733929855786,
        "roughnessFactor": 0.29104850605258986
      }
    },
    {
      "alphaMode": "BLEND",
      "doubleSided": true,
      "emissiveFactor": [
        0.04536280460825642,
        0.046559472231579496,
        0.045921810346843867
      ],
      "extensions": {
        "KHR_materials_emissive_strength": {
          "emissiveStrength": 1.2038131925735391
        },
        "KHR_materials_specular": {
          "specularColorFactor": [
            1.0,
            1.0,
            1.0
          ],
          "specularFactor": 1.0
        }
      },
      "name": "LEBAL",
      "pbrMetallicRoughness": {
        "baseColorTexture": {
          "index": 0
        },
        "metallicFactor": 0.0,
        "roughnessFactor": 0.42514415282027523
      }
    }
  ],
  "meshes": [
    {
      "name": "Object_0",
      "primitives": [
        {
          "attributes": {
            "NORMAL": 1,
            "POSITION": 0,
            "TEXCOORD_0": 2
          },
          "indices": 3,
          "material": 1,
          "mode": 4
        }
      ]
    },
    {
      "name": "Object_1",
      "primitives": [
        {
          "attributes": {
            "NORMAL": 5,
            "POSITION": 4,
            "TEXCOORD_0": 6
          },
          "indices": 7,
          "material": 2,
          "mode": 4
        }
      ]
    },
    {
      "name": "Object_2",
      "primitives": [
        {
          "attributes": {
            "NORMAL": 9,
            "POSITION": 8,
            "TEXCOORD_0": 10
          },
          "indices": 11,
          "material": 0,
          "mode": 4
        }
      ]
    },
    {
      "name": "Object_3",
      "primitives": [
        {
          "attributes": {
            "NORMAL": 13,
            "POSITION": 12,
            "TEXCOORD_0": 14
          },
          "indices": 15,
          "material": 3,
          "mode": 4
        }
      ]
    }
  ],
  "nodes": [
    {
      "children": [
        1
      ],
      "matrix": [
        1.0,
        0.0,
        0.0,
        0.0,
        0.0,
        2.220446049250313e-16,
        -1.0,
        0.0,
        0.0,
        1.0,
        2.220446049250313e-16,
        0.0,
        0.0,
        0.0,
        0.0,
        1.0
      ],
      "name": "Sketchfab_model"
    },
    {
      "children": [
        2
      ],
      "name": "root"
    },
    {
      "children": [
        3,
        5,
        7,
        9
      ],
      "matrix": [
        1.0,
        0.0,
        0.0,
        0.0,
        0.0,
        2.220446049250313e-16,
        1.0,
        0.0,
        0.0,
        -1.0,
        2.220446049250313e-16,
        0.0,
        0.0,
        0.0,
        0.0,
        1.0
      ],
      "name": "GLTF_SceneRootNode"
    },
    {
      "children": [
        4
      ],
      "matrix": [
        1.0,
        0.0,
        0.0,
        0.0,
        0.0,
        -1.685873969314855e-07,
        0.9999999999999858,
        0.0,
        0.0,
        -0.9999999999999858,
        -1.685873969314855e-07,
        0.0,
        0.0,
        0.0,
        0.0,
        1.0
      ],
      "name": "Andara_0"
    },
    {
      "mesh": 0,
      "name": "Object_4"
    },
    {
      "children": [
        6
      ],
      "matrix": [
        1.0,
        0.0,
        0.0,
        0.0,
        0.0,
        -1.685873969314855e-07,
        0.9999999999999858,
        0.0,
        0.0,
        -0.9999999999999858,
        -1.685873969314855e-07,
        0.0,
        0.0,
        0.0,
        0.0,
        1.0
      ],
      "name": "beer_set01.001_1"
    },
    {
      "mesh": 1,
      "name": "Object_6"
    },
    {
      "children": [
        8
      ],
      "matrix": [
        1.0,
        0.0,
        0.0,
        0.0,
        0.0,
        -1.685873969314855e-07,
        0.9999999999999858,
        0.0,
        0.0,
        -0.9999999999999858,
        -1.685873969314855e-07,
        0.0,
        0.0,
        0.0,
        0.0,
        1.0
      ],
      "name": "beer_set01.002_2"
    },
    {
      "mesh": 2,
      "name": "Object_8"
    },
    {
      "children": [
        10
      ],
      "matrix": [
        1.0,
        0.0,
        0.0,
        0.0,
        0.0,
        -1.685873969314855e-07,
        0.9999999999999858,
        0.0,
        0.0,
        -0.9999999999999858,
        -1.685873969314855e-07,
        0.0,
        0.0,
        0.0,
        0.0,
        1.0
      ],
      "name": "CAP_3"
    },
    {
      "mesh": 3,
      "name": "Object_10"
    }
  ],
  "samplers": [
    {
      "magFilter": 9729,
      "minFilter": 9987,
      "wrapS": 10497,
      "wrapT": 10497
    }
  ],
  "scene": 0,
  "scenes": [
    {
      "name": "Sketchfab_Scene",
      "nodes": [
        0
      ]
    }
  ],
  "textures": [
    {
      "sampler": 0,
      "source": 0
    }
  ]
}
